<svg xmlns="http://www.w3.org/2000/svg" width="1.3rem" height="1.3rem" viewBox="0 0 184 176" fill="none">
  <path d="M137.968 0.0847168H46.5998C21.3576 0.0847168 0.822388 20.6199 0.822388 45.8621V129.451C0.822388 154.693 21.3576 175.229 46.5998 175.229H137.968C163.211 175.229 183.746 154.693 183.746 129.451V45.8621C183.746 20.6199 163.211 0.0847168 137.968 0.0847168ZM16.9712 45.8621C16.9712 29.5271 30.2648 16.2336 46.5998 16.2336H137.968C154.303 16.2336 167.597 29.5271 167.597 45.8621V129.451C167.597 145.786 154.303 159.08 137.968 159.08H46.5998C30.2648 159.08 16.9712 145.786 16.9712 129.451V45.8621Z" fill="white"/>
  <path d="M92.2842 130.227C115.757 130.227 134.865 111.13 134.865 87.6463C134.865 64.1628 115.768 45.0656 92.2842 45.0656C68.8006 45.0656 49.7034 64.1628 49.7034 87.6463C49.7034 111.13 68.8006 130.227 92.2842 130.227ZM92.2842 61.2247C106.861 61.2247 118.716 73.0803 118.716 87.6566C118.716 102.233 106.861 114.089 92.2842 114.089C77.7078 114.089 65.8522 102.233 65.8522 87.6566C65.8522 73.0803 77.7078 61.2247 92.2842 61.2247Z" fill="white"/>
  <path d="M138.806 51.9451C145.127 51.9451 150.279 46.8036 150.279 40.4723C150.279 34.1411 145.138 28.9995 138.806 28.9995C132.475 28.9995 127.334 34.1411 127.334 40.4723C127.334 46.8036 132.475 51.9451 138.806 51.9451Z" fill="white"/>
</svg>